<?xml version="1.0" encoding="UTF-8"?>
<svg xmlns="http://www.w3.org/2000/svg" xmlns:xlink="http://www.w3.org/1999/xlink" viewBox="66 90 68 68">
  <defs>
    <style>
      .cls-1 {
        fill: #fff;
      }

      .cls-2 {
        fill: url(#Gradiente_sem_nome_625-2);
      }

      .cls-3 {
        fill: url(#Gradiente_sem_nome_625);
      }
    </style>
    <linearGradient id="Gradiente_sem_nome_625" data-name="Gradiente sem nome 625" x1="74.84" y1="141.54" x2="100.12" y2="91.95" gradientUnits="userSpaceOnUse">
      <stop offset="0" stop-color="#2479f0"/>
      <stop offset=".81" stop-color="#efc6df"/>
    </linearGradient>
    <linearGradient id="Gradiente_sem_nome_625-2" data-name="Gradiente sem nome 625" x1="84.44" y1="146.54" x2="131.9" y2="146.54" xlink:href="#Gradiente_sem_nome_625"/>
  </defs>
  <g>
    <path class="cls-3" d="M95.99,93.72l-8.13,42.95h-18.21c-1.34,0-2.18-1.43-1.54-2.6l22.31-40.57c.06-.1.17-.17.29-.17h4.96c.21,0,.36.19.32.39Z"/>
    <path class="cls-2" d="M131.57,136.41l-43.71.26-3.39,17.91c-.25,1.32,1.01,2.42,2.28,1.99l44-14.67c.11-.04.2-.13.22-.25l.92-4.85c.04-.2-.12-.39-.32-.39Z"/>
    <path class="cls-1" d="M104.94,101.46l-1.67,8.81c-.11.57.33,1.09.91,1.09h15.89c.16,0,.27.14.25.3l-2.66,14.07c-.11.57.33,1.09.91,1.09h8.94c.44,0,.82-.32.91-.75l4.53-23.97c.14-.72-.42-1.4-1.16-1.4h-25.94c-.44,0-.82.32-.91.75Z"/>
  </g>
</svg>
