<?xml version="1.0" encoding="UTF-8"?>
<svg id="Logo" xmlns="http://www.w3.org/2000/svg" xmlns:xlink="http://www.w3.org/1999/xlink" viewBox="63 90 374 70">
  <defs>
    <style>
      .cls-1 {
        fill: url(#Gradiente_sem_nome_625-2);
      }

      .cls-2 {
        fill: #fff;
      }

      .cls-3 {
        fill: url(#Gradiente_sem_nome_625);
      }
    </style>
    <linearGradient id="Gradiente_sem_nome_625" data-name="Gradiente sem nome 625" x1="74.84" y1="141.54" x2="100.12" y2="91.95" gradientUnits="userSpaceOnUse">
      <stop offset="0" stop-color="#2479f0"/>
      <stop offset=".81" stop-color="#efc6df"/>
    </linearGradient>
    <linearGradient id="Gradiente_sem_nome_625-2" data-name="Gradiente sem nome 625" x1="84.44" y1="146.54" x2="131.9" y2="146.54" xlink:href="#Gradiente_sem_nome_625"/>
  </defs>
  <g>
    <path class="cls-3" d="M95.99,93.72l-8.13,42.95h-18.21c-1.34,0-2.18-1.43-1.54-2.6l22.31-40.57c.06-.1.17-.17.29-.17h4.96c.21,0,.36.19.32.39Z"/>
    <path class="cls-1" d="M131.57,136.41l-43.71.26-3.39,17.91c-.25,1.32,1.01,2.42,2.28,1.99l44-14.67c.11-.04.2-.13.22-.25l.92-4.85c.04-.2-.12-.39-.32-.39Z"/>
    <path class="cls-2" d="M104.94,101.46l-1.67,8.81c-.11.57.33,1.09.91,1.09h15.89c.16,0,.27.14.25.3l-2.66,14.07c-.11.57.33,1.09.91,1.09h8.94c.44,0,.82-.32.91-.75l4.53-23.97c.14-.72-.42-1.4-1.16-1.4h-25.94c-.44,0-.82.32-.91.75Z"/>
  </g>
  <g>
    <path class="cls-2" d="M191.34,138.88v4.68c-1.13.72-2.82,1.32-5.05,1.8-2.24.47-4.58.71-7.02.71-4.75,0-8.08-1.29-10-3.87-1.92-2.58-2.88-7.08-2.88-13.5s1.24-10.75,3.73-13.4c2.49-2.65,6.72-3.97,12.68-3.97,1.31,0,2.5.03,3.56.1,1.06.07,2.43.22,4.1.44v4.95c-1.67-.23-3.04-.36-4.1-.41-1.06-.04-2.25-.07-3.56-.07-4.25,0-7.12.87-8.61,2.61-1.49,1.74-2.24,4.98-2.24,9.73s.59,7.97,1.76,9.67c1.18,1.7,3.44,2.54,6.78,2.54,1.85,0,3.77-.19,5.77-.58,1.99-.38,3.68-.87,5.09-1.46Z"/>
    <path class="cls-2" d="M206.31,146.07c-3.44,0-5.96-.82-7.56-2.48-1.61-1.65-2.41-4.26-2.41-7.83s.97-6.18,2.92-7.7c1.94-1.51,5.24-2.27,9.9-2.27,1.54,0,3.05.07,4.54.2,1.49.14,2.89.34,4.21.61v-3.26c0-2.49-.63-4.27-1.9-5.36s-3.3-1.63-6.1-1.63c-2.08,0-3.91.08-5.49.24-1.58.16-3.17.42-4.75.78v-4.82c1.81-.45,3.65-.77,5.53-.95,1.88-.18,4.01-.27,6.41-.27,4.02,0,7.01.94,8.95,2.82,1.94,1.88,2.92,4.78,2.92,8.72v22.65h-5.09l-.27-3.12h-.14c-1.36,1.09-3.11,1.97-5.26,2.65-2.15.68-4.28,1.02-6.41,1.02ZM209.77,130.33c-3.08,0-5.21.37-6.41,1.12-1.2.75-1.8,2.07-1.8,3.97s.5,3.43,1.49,4.31c.99.88,2.62,1.32,4.88,1.32,1.76,0,3.57-.27,5.43-.81,1.85-.54,3.37-1.22,4.54-2.03v-7.19c-1.49-.23-2.88-.39-4.17-.51-1.29-.11-2.61-.17-3.97-.17Z"/>
    <path class="cls-2" d="M237.29,100.42v45.11h-5.56v-45.11h5.56Z"/>
    <path class="cls-2" d="M269.51,138.88v4.68c-1.13.72-2.82,1.32-5.05,1.8-2.24.47-4.58.71-7.02.71-4.75,0-8.08-1.29-10-3.87-1.92-2.58-2.88-7.08-2.88-13.5s1.24-10.75,3.73-13.4c2.49-2.65,6.72-3.97,12.68-3.97,1.31,0,2.5.03,3.56.1,1.06.07,2.43.22,4.1.44v4.95c-1.67-.23-3.04-.36-4.1-.41-1.06-.04-2.25-.07-3.56-.07-4.25,0-7.12.87-8.61,2.61-1.49,1.74-2.24,4.98-2.24,9.73s.59,7.97,1.76,9.67c1.18,1.7,3.44,2.54,6.78,2.54,1.85,0,3.77-.19,5.77-.58,1.99-.38,3.68-.87,5.09-1.46Z"/>
    <path class="cls-2" d="M279.88,145.52h-6.1l16.82-42.53h5.97l16.62,42.53h-6.1l-3.87-10.24h-19.47l-3.87,10.24ZM293.44,108.29c-.45,1.58-.98,3.26-1.59,5.02-.61,1.76-1.23,3.53-1.87,5.29l-4.34,11.6h15.67l-4.34-11.6c-.91-2.49-1.62-4.5-2.14-6.04-.52-1.54-.98-2.96-1.39-4.27Z"/>
    <path class="cls-2" d="M353.84,103v42.53h-5.83l-23.54-33.1v33.1h-5.43v-42.53h5.83l23.54,33.57v-33.57h5.43Z"/>
    <path class="cls-2" d="M393.86,103v5.22h-14.11v37.3h-5.77v-37.3h-14.11v-5.22h33.98Z"/>
    <path class="cls-2" d="M432.11,103v5.22h-14.11v37.3h-5.77v-37.3h-14.11v-5.22h33.98Z"/>
  </g>
</svg>
